<svg version="1.1" xmlns="http://www.w3.org/2000/svg" xmlns:xlink="http://www.w3.org/1999/xlink" x="0px" y="0px"
	 viewBox="0 0 100 100" style="enable-background:new 0 0 100 100;" xml:space="preserve">
<g id="Vrstva_68">
	<g>
		<g>
			<path d="M50,84c-0.306,0-0.607-0.093-0.864-0.273C48.737,83.446,48.5,82.989,48.5,82.5v-55c0-0.634,0.398-1.199,0.995-1.413
				l28-10c0.46-0.164,0.97-0.095,1.369,0.187c0.398,0.281,0.636,0.738,0.636,1.227v55c0,0.634-0.398,1.199-0.995,1.413l-28,10
				C50.341,83.972,50.17,84,50,84z M51.5,28.557v51.815l25-8.928V19.629L51.5,28.557z"/>
		</g>
		<g>
			<path d="M49.5,84c-0.17,0-0.344-0.028-0.513-0.09l-27.5-10c-0.593-0.216-0.987-0.779-0.987-1.41v-55
				c0-0.489,0.238-0.948,0.64-1.228c0.401-0.28,0.913-0.348,1.373-0.182l27.5,10c0.778,0.283,1.18,1.145,0.897,1.923
				c-0.283,0.778-1.146,1.181-1.923,0.897L23.5,19.642v51.808l26.513,9.641c0.778,0.283,1.18,1.145,0.897,1.923
				C50.688,83.622,50.112,84,49.5,84z"/>
		</g>
		<g>
			<path d="M41.693,44.161c-0.17,0-0.344-0.028-0.513-0.091l-11.968-4.351c-0.778-0.283-1.18-1.145-0.897-1.923
				c0.283-0.778,1.146-1.181,1.923-0.897l11.968,4.354c0.778,0.282,1.18,1.144,0.896,1.922
				C42.882,43.783,42.306,44.161,41.693,44.161z"/>
		</g>
		<g>
			<path d="M41.693,54.161c-0.17,0-0.344-0.028-0.513-0.091l-11.968-4.351c-0.778-0.283-1.18-1.145-0.897-1.923
				c0.283-0.778,1.146-1.18,1.923-0.897l11.968,4.354c0.778,0.282,1.18,1.144,0.896,1.922
				C42.882,53.783,42.306,54.161,41.693,54.161z"/>
		</g>
		<g>
			<path d="M41.693,64.161c-0.17,0-0.344-0.028-0.513-0.091l-11.968-4.351c-0.778-0.283-1.18-1.145-0.897-1.923
				c0.283-0.778,1.146-1.18,1.923-0.897l11.968,4.354c0.778,0.282,1.18,1.144,0.896,1.922
				C42.882,63.783,42.306,64.161,41.693,64.161z"/>
		</g>
		<g>
			<path d="M57.725,44.161c-0.612,0-1.188-0.378-1.409-0.987c-0.283-0.778,0.118-1.64,0.896-1.922l11.968-4.354
				c0.778-0.283,1.64,0.119,1.923,0.897c0.282,0.778-0.119,1.64-0.897,1.923l-11.968,4.351
				C58.068,44.133,57.894,44.161,57.725,44.161z"/>
		</g>
		<g>
			<path d="M57.725,54.161c-0.612,0-1.188-0.378-1.409-0.987c-0.283-0.778,0.118-1.64,0.896-1.922l11.968-4.354
				c0.778-0.283,1.64,0.119,1.923,0.897c0.282,0.778-0.119,1.64-0.897,1.923l-11.968,4.351
				C58.068,54.133,57.894,54.161,57.725,54.161z"/>
		</g>
		<g>
			<path d="M57.725,64.161c-0.612,0-1.188-0.378-1.409-0.987c-0.283-0.778,0.118-1.64,0.896-1.922l11.968-4.354
				c0.778-0.283,1.64,0.119,1.923,0.897c0.282,0.778-0.119,1.64-0.897,1.923l-11.968,4.351
				C58.068,64.133,57.894,64.161,57.725,64.161z"/>
		</g>
	</g>
</g>
<script  type="text/javascript">
    <![CDATA[
         var c=window.location.search.split('color=')[1]; c=parseInt(c,16); if(!isNaN(c)){c=c.toString(16);var p=document.getElementsByTagName('path');for(var i=0,l=p.length;i<l;i++){var s=p[i].style;s.fill='#'+c;} var p2=document.getElementsByTagName('polygon');for(var i=0,l=p2.length;i<l;i++){var s=p2[i].style;s.fill='#'+c;} var p3=document.getElementsByTagName('circle');for(var i=0,l=p3.length;i<l;i++){var s=p3[i].style;s.fill='#'+c;} }
        ]]>
</script>
</svg>
